<?xml version="1.0" encoding="UTF-8" standalone="no"?>
<!-- Created with Inkscape (http://www.inkscape.org/) -->

<svg
   width="173.18182mm"
   height="192.42424mm"
   viewBox="0 0 173.18183 192.42424"
   version="1.1"
   id="svg1"
   xml:space="preserve"
   sodipodi:docname="heart-red.svg"
   xmlns:inkscape="http://www.inkscape.org/namespaces/inkscape"
   xmlns:sodipodi="http://sodipodi.sourceforge.net/DTD/sodipodi-0.dtd"
   xmlns="http://www.w3.org/2000/svg"
   xmlns:svg="http://www.w3.org/2000/svg"><sodipodi:namedview
     id="namedview1"
     pagecolor="#ffffff"
     bordercolor="#000000"
     borderopacity="0.25"
     inkscape:showpageshadow="2"
     inkscape:pageopacity="0.0"
     inkscape:pagecheckerboard="0"
     inkscape:deskcolor="#d1d1d1"
     inkscape:document-units="mm" /><defs
     id="defs1" /><g
     inkscape:label="Laag 1"
     inkscape:groupmode="layer"
     id="layer1"
     transform="translate(-21.650485,-47.655568)"><g
       id="g77"><g
         style="fill:#000000"
         id="g76"
         transform="matrix(9.6212121,0,0,9.6212121,2.4080601,38.034356)"><path
           d="M 6,2 H 8 V 1 h 6 v 1 h 2 v 1 h 1 v 1 h 1 v 1 h 1 v 2 h 1 v 7 h -1 v 2 h -1 v 4 h -1 v 1 H 5 V 20 H 4 V 16 H 3 V 14 H 2 V 8 H 3 V 5 H 4 V 4 H 5 V 3 H 6 V 2 m 9,3 V 4 H 13 V 3 H 9 V 4 H 7 V 5 H 6 V 6 H 5 V 9 H 4 v 4 h 1 v 2 h 1 v 4 h 2 v -2 h 2 v 2 h 2 v -2 h 2 v 2 h 2 v -4 h 1 v -2 h 1 V 8 H 17 V 6 H 16 V 5 H 15 M 7,8 h 3 v 3 H 7 V 8 m 5,3 V 8 h 3 v 3 h -3 m -2,2 h 2 v 2 h -2 z"
           id="path1" /></g><path
         style="fill:#ffffff;fill-opacity:1;stroke-width:1.41421"
         d="m 181.01934,548.71486 v -72.832 h -18.38478 -18.38478 v -36.76955 -36.76955 h -18.38477 -18.38478 v -71.41779 -71.41778 h 18.38478 18.38477 v -55.15433 -55.15433 h 18.38478 18.38478 v -17.67767 -17.67767 h 18.38477 18.38478 V 95.459415 77.074639 h 36.06244 36.06245 V 58.689863 40.305086 h 72.12489 72.12489 v 18.384777 18.384776 h 36.06245 36.06244 v 18.384776 18.384775 h 18.38478 18.38478 v 17.67767 17.67767 h 18.38477 18.38478 v 36.76955 36.76956 h 17.67767 17.67767 v 89.80256 89.80256 h -17.67767 -17.67767 v 36.76955 36.76955 h -18.38478 -18.38477 v 72.832 72.832 h -35.35534 -35.35534 v -36.76955 -36.76956 h -37.47666 -37.47666 v 36.76956 36.76955 h -35.35534 -35.35534 v -36.76955 -36.76956 h -37.47666 -37.47666 v 36.76956 36.76955 H 216.37467 181.01934 Z M 398.80822,439.82042 v -37.47666 h -36.76955 -36.76955 v 37.47666 37.47666 h 36.76955 36.76955 z M 326.68333,276.47875 V 221.32442 H 271.529 216.37467 v 55.15433 55.15433 h 55.15433 55.15433 z m 181.01934,0 v -55.15433 h -55.15433 -55.15433 v 55.15433 55.15433 h 55.15433 55.15433 z"
         id="path76"
         transform="matrix(0.26458333,0,0,0.26458333,12.462227,56.290606)" /></g></g></svg>
