<?xml version="1.0" encoding="UTF-8" standalone="no"?>
<!-- Created with Inkscape (http://www.inkscape.org/) -->

<svg
   width="134.69698mm"
   height="192.42424mm"
   viewBox="0 0 134.69698 192.42424"
   version="1.1"
   id="svg1"
   xml:space="preserve"
   xmlns:inkscape="http://www.inkscape.org/namespaces/inkscape"
   xmlns:sodipodi="http://sodipodi.sourceforge.net/DTD/sodipodi-0.dtd"
   xmlns="http://www.w3.org/2000/svg"
   xmlns:svg="http://www.w3.org/2000/svg"><sodipodi:namedview
     id="namedview1"
     pagecolor="#ffffff"
     bordercolor="#000000"
     borderopacity="0.25"
     inkscape:showpageshadow="2"
     inkscape:pageopacity="0.0"
     inkscape:pagecheckerboard="0"
     inkscape:deskcolor="#d1d1d1"
     inkscape:document-units="mm" /><defs
     id="defs1" /><g
     inkscape:label="Laag 1"
     inkscape:groupmode="layer"
     id="layer1"
     transform="translate(-44.055047,-42.289569)"><g
       style="fill:#ffc107;fill-opacity:1"
       id="g1"
       transform="matrix(9.6212121,0,0,9.6212121,5.5701997,32.668357)"><path
         d="m 8,19 h 6 v 2 H 8 V 19 M 8,18 V 14 H 7 V 13 H 6 V 12 H 5 V 11 H 4 V 5 H 5 V 4 H 6 V 3 H 7 V 2 H 8 V 1 h 6 v 1 h 1 v 1 h 1 v 1 h 1 v 1 h 1 v 6 h -1 v 1 h -1 v 1 h -1 v 1 h -1 v 4 H 8 m 5,-6 h 1 v -1 h 1 v -1 h 1 V 6 H 15 V 5 H 14 V 4 H 13 V 3 H 9 V 4 H 8 V 5 H 7 V 6 H 6 v 4 h 1 v 1 h 1 v 1 h 1 v 1 h 1 v 3 h 2 v -3 h 1 z"
         id="path1"
         style="fill:#ffc107;fill-opacity:1" /></g></g></svg>
