<?xml version="1.0" encoding="UTF-8" standalone="no"?>
<!-- Created with Inkscape (http://www.inkscape.org/) -->

<svg
   width="192.3521mm"
   height="172.91655mm"
   viewBox="0 0 192.3521 172.91655"
   version="1.1"
   id="svg1"
   xml:space="preserve"
   sodipodi:docname="heart-red.svg"
   xmlns:inkscape="http://www.inkscape.org/namespaces/inkscape"
   xmlns:sodipodi="http://sodipodi.sourceforge.net/DTD/sodipodi-0.dtd"
   xmlns="http://www.w3.org/2000/svg"
   xmlns:svg="http://www.w3.org/2000/svg"><sodipodi:namedview
     id="namedview1"
     pagecolor="#ffffff"
     bordercolor="#000000"
     borderopacity="0.25"
     inkscape:showpageshadow="2"
     inkscape:pageopacity="0.0"
     inkscape:pagecheckerboard="0"
     inkscape:deskcolor="#d1d1d1"
     inkscape:document-units="mm" /><defs
     id="defs1" /><g
     inkscape:label="Laag 1"
     inkscape:groupmode="layer"
     id="layer1"
     transform="translate(-12.462227,-56.477695)"><path
       style="fill:#dc3545;fill-opacity:1;stroke-width:1.41421"
       d="M 328.09754,635.68899 V 617.30422 H 309.71277 291.32799 V 598.91944 580.53466 H 272.94322 254.55844 V 562.857 545.17933 H 236.88077 219.2031 V 526.79455 508.40977 H 200.81832 182.43355 V 490.025 471.64022 H 164.04877 145.664 V 453.96255 436.28488 H 127.98633 110.30866 V 417.90011 399.51533 H 91.923881 73.539105 V 381.13055 362.74578 H 55.154329 36.769552 V 326.68333 290.62089 H 18.384776 0 V 200.11122 109.60155 H 18.384776 36.769552 V 91.216774 72.831998 H 55.154329 73.539105 V 55.154329 37.476659 H 91.923881 110.30866 V 19.091883 0.70710678 h 89.80256 89.80256 V 19.091883 37.476659 h 18.38478 18.38477 v 17.67767 17.677669 h 36.76955 36.76956 V 55.154329 37.476659 h 18.38477 18.38478 V 19.091883 0.70710678 h 90.50967 90.50966 V 19.091883 37.476659 h 17.67767 17.67767 v 17.67767 17.677669 h 18.38478 18.38478 v 18.384776 18.384776 h 18.38477 18.38478 v 90.50967 90.50967 h -18.38478 -18.38477 v 36.06244 36.06245 h -18.38478 -18.38478 v 18.38477 18.38478 h -17.67767 -17.67767 v 18.38478 18.38477 h -18.38477 -18.38478 v 17.67767 17.67767 H 562.857 544.47222 v 18.38478 18.38477 h -17.67767 -17.67767 v 18.38478 18.38478 H 490.7321 472.34733 v 17.67767 17.67766 h -18.38478 -18.38477 v 18.38478 18.38478 H 417.193 398.80822 v 18.38477 18.38478 h -35.35534 -35.35534 z m 72.1249,-107.48023 v -18.38477 h 18.38477 18.38478 v -18.38478 -18.38478 h 18.38478 18.38477 V 455.37677 437.6991 h 17.67767 17.67767 v -18.38478 -18.38478 h 18.38478 18.38477 v -18.38477 -18.38478 h 18.38478 18.38478 v -18.38478 -18.38477 h 18.38477 18.38478 v -36.06245 -36.06244 h 17.67767 17.67767 V 200.11122 144.95689 H 637.10321 619.42554 V 126.57211 108.18734 H 601.04076 582.65599 V 89.802561 71.417785 l -49.85103,0.334621 -49.85103,0.334623 49.14392,0.390809 49.14392,0.390811 V 91.2351 109.60155 h 18.38478 18.38477 v 18.38478 18.38477 h 17.67767 17.67767 v 53.74012 53.74011 h -17.67767 -17.67767 v 36.06245 36.06244 H 599.62655 581.24177 V 344.361 362.74578 H 562.857 544.47222 v 18.38477 18.38478 h -18.38478 -18.38477 v 18.38478 18.38477 H 490.025 472.34733 v 17.67767 17.67767 H 453.96255 435.57778 V 490.025 508.40977 H 417.193 398.80822 v 18.38478 18.38478 h -35.35534 -35.35534 v -18.38478 -18.38478 h -18.28108 c -16.22136,0 -18.35395,-0.27884 -18.92782,-2.47487 -0.4867,-1.86239 -0.68737,-1.6874 -0.81081,0.70711 -0.16214,3.14507 0.0492,3.18198 18.22073,3.18198 h 18.38477 v 18.38477 18.38478 h 36.76955 36.76956 z M 219.2031,409.41482 v -9.89949 H 200.81832 182.43355 V 381.13055 362.74578 H 164.04877 145.664 V 344.361 325.97622 H 127.98633 110.30866 V 289.91378 253.85133 H 91.923881 73.539105 V 200.11122 146.3711 h 18.384776 18.384779 v -18.26692 c 0,-11.06459 0.57154,-18.55037 1.44957,-18.98582 0.79726,-0.39539 0.63816,-0.55547 -0.35356,-0.35573 -1.3217,0.26621 -1.9088,5.14644 -2.19893,18.27871 l -0.3958,17.91555 H 90.467415 72.124891 v 55.15433 55.15433 h 18.384777 18.384772 v 36.06244 36.06245 h 17.67767 17.67767 v 18.38477 18.38478 h 18.38478 18.38478 v 18.38478 18.38477 h 18.38477 18.38478 v 9.19239 c 0,5.05581 0.3182,9.19239 0.7071,9.19239 0.38891,0 0.70711,-4.45477 0.70711,-9.8995 z m 72.52,-265.92823 c -0.41488,-1.58649 -1.07032,-2.56854 -1.45653,-2.18232 -0.76509,0.76508 0.58632,5.06683 1.59175,5.06683 0.3405,0 0.27965,-1.29803 -0.13522,-2.88451 z"
       id="path39"
       transform="matrix(0.26458333,0,0,0.26458333,12.462227,56.290606)" /><path
       style="fill:#dc3545;fill-opacity:1;stroke-width:0.5"
       d="M 327.5,636 V 617.75 H 309.25 291 v -18 -18 H 272.75 254.5 V 563.5 545.25 h -18 -18 V 527 508.75 H 200.25 182 V 490.5 472.25 H 163.75 145.5 v -18 -18 h -18 -18 V 418 399.75 H 91.25 73 V 381.5 363.25 H 54.75 36.5 V 327 290.75 H 18.25 0 V 200 109.25 H 18.25 36.5 v -13 -13 H 309 581.5 v 13 13 H 599.75 618 v 18.5 18.5 h 17.75 17.75 v 54 54 H 635.75 618 v 36 36 H 599.75 581.5 l 0.10375,5.125 0.1038,5.125 0.165,-4.625 0.165,-4.625 H 600.26875 618.5 V 291 254.75 h 18 18 V 200 145.25 h -18 -18 V 127 108.75 H 600.25 582 V 96 83.25 h 54.25 54.25 v 13 13 H 708.75 727 V 200 290.75 H 708.75 690.5 V 327 363.25 h -18 -18 v 18.25 18.25 H 636.25 618 V 418 436.25 H 599.75 581.5 v 18.25 18.25 h -17.9937 -17.99365 l -0.13135,17.875 -0.1313,17.875 -17.875,0.13131 -17.875,0.13132 V 527.00631 545.25 H 491 472.5 v 18.25 18.25 H 454.25 436 v 18 18 H 418 400 V 636 654.25 H 363.75 327.5 Z M 400,527.5 v -18.25 h 18.25 18.25 l -0.0901,-4.125 -0.0901,-4.125 -0.28492,3.75 -0.28492,3.75 -18.375,0.13116 L 399,508.76232 V 527.00616 545.25 H 363.5 328 v -16.5 c 0,-10.66667 -0.17677,-16.5 -0.5,-16.5 -0.32339,0 -0.5,5.91666 -0.5,16.75 v 16.75 h 36.5 36.5 z m 72.89822,-59.375 -0.10177,-4.625 -0.16845,4.125 -0.16844,4.125 h -3.22978 c -1.81986,0 -3.22978,0.21827 -3.22978,0.5 0,0.28571 1.5,0.5 3.5,0.5 H 473 Z M 219,403.75 v -4 H 200.75 182.5 v -18.5 -18.5 H 164 145.5 V 344.5 326.25 h -6.47049 c -3.77432,0 -6.59926,0.20834 -6.77951,0.5 -0.19999,0.32358 1.99481,0.5 6.22049,0.5 H 145 v 18.25 18.25 h 18.25 18.25 V 382 400.25 H 199.75 218 V 404 c 0,2.16666 0.21111,3.75 0.5,3.75 0.29166,0 0.5,-1.66667 0.5,-4 z M 545.46485,377.625 C 545.48735,370.35157 545.3197,366.25 545,366.25 c -0.3208,0 -0.4874,4.4349 -0.46485,12.375 0.0209,7.37602 0.2087,11.97104 0.46485,11.375 0.23635,-0.55 0.44555,-6.11875 0.46485,-12.375 z M 109.94084,318.59549 C 109.97856,316.1058 109.81882,314.80295 109.5,315 c -0.28701,0.17738 -0.4748,2.47966 -0.44085,5.40451 0.0689,5.93424 0.78669,4.46151 0.88169,-1.80902 z M 110,283.22049 V 254.25 H 91.75 73.5 v -54 -54 H 91.75 110 V 143 c 0,-1.83334 -0.21795,-3.25 -0.5,-3.25 -0.275,0 -0.5,1.2375 -0.5,2.75 v 2.75 H 90.75 72.5 V 200 254.75 H 90.75 109 v 29.02951 c 0,19.22568 0.16886,28.92514 0.5,28.72049 0.32402,-0.20026 0.5,-10.50519 0.5,-29.27951 z"
       id="path76"
       transform="matrix(0.26458333,0,0,0.26458333,12.462227,56.290606)" /></g></svg>
