<?xml version="1.0" encoding="UTF-8" standalone="no"?>
<!-- Created with Inkscape (http://www.inkscape.org/) -->

<svg
   width="173.18182mm"
   height="192.42424mm"
   viewBox="0 0 173.18182 192.42424"
   version="1.1"
   id="svg1"
   xml:space="preserve"
   xmlns:inkscape="http://www.inkscape.org/namespaces/inkscape"
   xmlns:sodipodi="http://sodipodi.sourceforge.net/DTD/sodipodi-0.dtd"
   xmlns="http://www.w3.org/2000/svg"
   xmlns:svg="http://www.w3.org/2000/svg"><sodipodi:namedview
     id="namedview1"
     pagecolor="#ffffff"
     bordercolor="#000000"
     borderopacity="0.25"
     inkscape:showpageshadow="2"
     inkscape:pageopacity="0.0"
     inkscape:pagecheckerboard="0"
     inkscape:deskcolor="#d1d1d1"
     inkscape:document-units="mm" /><defs
     id="defs1" /><g
     inkscape:label="Laag 1"
     inkscape:groupmode="layer"
     id="layer1"
     transform="translate(-16.783537,-51.322287)"><g
       style="fill:#444256;fill-opacity:1"
       id="g1"
       transform="matrix(9.6212121,0,0,9.6212121,-2.4588872,41.701077)"><path
         d="M 6,2 H 8 V 1 h 6 v 1 h 2 v 1 h 1 v 1 h 1 v 1 h 1 v 2 h 1 v 7 h -1 v 2 h -1 v 4 h -1 v 1 H 5 V 20 H 4 V 16 H 3 V 14 H 2 V 8 H 3 V 5 H 4 V 4 H 5 V 3 H 6 V 2 m 9,3 V 4 H 13 V 3 H 9 V 4 H 7 V 5 H 6 V 6 H 5 V 9 H 4 v 4 h 1 v 2 h 1 v 4 h 2 v -2 h 2 v 2 h 2 v -2 h 2 v 2 h 2 v -4 h 1 v -2 h 1 V 8 H 17 V 6 H 16 V 5 H 15 M 7,8 h 3 v 3 H 7 V 8 m 5,3 V 8 h 3 v 3 h -3 m -2,2 h 2 v 2 h -2 z"
         id="path1"
         style="fill:#444256;fill-opacity:1" /></g></g></svg>
